PathFileType	4	(X/Y/Z)	C:/Users/opensim2020/Desktop/walking_exp_matlab/subject06_walking13_straight_02.trc																																																																																																																																																				
DataRate	CameraRate	NumFrames	NumMarkers	Units	OrigDataRate	OrigDataStartFrame	OrigNumFrames																																																																																																																																																
100	100	5	50	mm	100	1537	199																																																																																																																																																
Frame#	Time	LFHD			RFHD			LBHD			RBHD			C7			T10			CLAV			STRN			RBAK			LSHO			LUPA			LELB			LFRM			LWRA			LWRB			LFIN			RSHO			RUPA			RELB			RFRM			RWRA			RWRB			RFIN			LASI			RASI			LPSI			RPSI			LTHI			LKNE			LTIB			LANK			LHEE			LTOE			RTHI			RKNE			RTIB			RANK			RHEE			RTOE			*39			*40			*41			*42			*43			*44			*45			*46			*47			*48			*49		
		X1	Y1	Z1	X2	Y2	Z2	X3	Y3	Z3	X4	Y4	Z4	X5	Y5	Z5	X6	Y6	Z6	X7	Y7	Z7	X8	Y8	Z8	X9	Y9	Z9	X10	Y10	Z10	X11	Y11	Z11	X12	Y12	Z12	X13	Y13	Z13	X14	Y14	Z14	X15	Y15	Z15	X16	Y16	Z16	X17	Y17	Z17	X18	Y18	Z18	X19	Y19	Z19	X20	Y20	Z20	X21	Y21	Z21	X22	Y22	Z22	X23	Y23	Z23	X24	Y24	Z24	X25	Y25	Z25	X26	Y26	Z26	X27	Y27	Z27	X28	Y28	Z28	X29	Y29	Z29	X30	Y30	Z30	X31	Y31	Z31	X32	Y32	Z32	X33	Y33	Z33	X34	Y34	Z34	X35	Y35	Z35	X36	Y36	Z36	X37	Y37	Z37	X38	Y38	Z38	X39	Y39	Z39	X40	Y40	Z40	X41	Y41	Z41	X42	Y42	Z42	X43	Y43	Z43	X44	Y44	Z44	X45	Y45	Z45	X46	Y46	Z46	X47	Y47	Z47	X48	Y48	Z48	X49	Y49	Z49	X50	Y50	Z50
																																																																																																																																																							
1	0	-1006.88025	1671.02039	-1490.32397	-1004.60681	1657.86304	-1359.03369	-1142.26697	1621.92322	-1488.66406	-1138.57043	1614.57959	-1360.33081	-1146.94727	1462.00244	-1430.17542	-1191.50879	1134.8656	-1419.43372	-1038.4967	1381.90149	-1435.45923	-1006.32745	1204.729	-1442.54761	-1220.75781	1295.24585	-1344.88025	-1103.89441	1414.67126	-1594.45667	-1132.39502	1212.76672	-1659.40015	-1150.94946	1101.27429	-1666.19971	-1138.57605	951.29907	-1688.82739	-1075.80396	834.70276	-1653.39404	-1141.47009	831.67786	-1681.00854	-1102.16101	749.89838	-1687.47961	-1072.11023	1415.72961	-1272.58167	-1097.17029	1217.53284	-1178.89941	-1077.97278	1097.00037	-1165.76514	-1030.35107	986.97583	-1156.75171	-935.88501	875.9903	-1206.32422	-980.9884	859.35608	-1159.24866	-921.50482	800.36743	-1166.49072	-1020.71082	972.26428	-1534.43481	-1010.05994	977.34363	-1314.47192	-1179.1416	997.26874	-1501.24976	-1164.12915	1002.90405	-1333.76575	-1030.84351	664.41254	-1606.61987	-978.86609	509.17075	-1596.00952	-1132.3103	318.84122	-1579.85388	-1233.60718	181.27628	-1537.75403	-1267.63452	188.77016	-1485.44312	-1140.77173	71.41633	-1554.52991	-1064.19678	639.45038	-1273.21326	-1061.7572	514.66168	-1302.73389	-1135.17566	255.2939	-1318.13269	-1166.84558	74.47852	-1375.48718	-1208.55835	53.1242	-1420.92175	-1014.46381	36.68294	-1381.74963	-1104.04517	1712.56982	-1428.28748	NaN	NaN	NaN	NaN	NaN	NaN	NaN	NaN	NaN	NaN	NaN	NaN	NaN	NaN	NaN	NaN	NaN	NaN	NaN	NaN	NaN	NaN	NaN	NaN	NaN	NaN	NaN	NaN	NaN	NaN
2	0.01	-997.14954	1670.51038	-1490.50476	-994.95374	1657.39441	-1359.17432	-1132.68982	1621.89758	-1488.90247	-1129.04761	1614.57971	-1360.56042	-1137.75842	1461.76367	-1430.29211	-1182.26648	1134.50903	-1419.33118	-1029.34534	1381.64648	-1435.51123	-997.03992	1204.48547	-1442.26746	-1211.48193	1294.95642	-1344.63318	-1094.797	1414.2356	-1594.5271	-1125.00281	1212.54297	-1659.16406	-1144.73779	1101.25427	-1665.58936	-1136.09668	951.13568	-1687.71521	-1077.20056	832.59369	-1651.22852	-1142.53772	831.59692	-1679.73242	-1105.99719	748.19128	-1684.71155	-1063.22253	1415.76282	-1272.70044	-1086.51843	1217.58093	-1178.75525	-1065.17432	1097.49207	-1165.28442	-1014.46149	988.91003	-1156.62927	-916.88226	881.0592	-1206.62683	-961.39423	862.87653	-1159.77502	-900.00659	805.90936	-1167.15918	-1010.86786	972.35858	-1533.82959	-1001.41449	976.73322	-1314.18164	-1169.44971	997.12811	-1501.68225	-1155.25354	1002.47198	-1334.07654	-1016.86304	665.56989	-1606.5946	-962.97083	510.64444	-1594.58362	-1110.04517	314.1738	-1580.39758	-1205.57471	172.14349	-1539.24744	-1240.34497	177.48303	-1487.19836	-1106.75073	67.3177	-1555.76038	-1057.95374	638.82208	-1273.67322	-1057.03076	513.87457	-1302.93408	-1133.21826	255.27644	-1318.66064	-1166.46399	74.70329	-1375.7627	-1208.10205	53.3063	-1421.46045	-1014.55798	36.67897	-1381.91211	-1094.1593	1712.43298	-1428.53625	NaN	NaN	NaN	NaN	NaN	NaN	NaN	NaN	NaN	NaN	NaN	NaN	NaN	NaN	NaN	NaN	NaN	NaN	NaN	NaN	NaN	NaN	NaN	NaN	NaN	NaN	NaN	NaN	NaN	NaN
3	0.02	-987.41046	1669.86646	-1490.82324	-985.51141	1656.72778	-1359.45618	-1123.10889	1621.69958	-1489.21375	-1119.51208	1614.38293	-1360.83044	-1128.62256	1461.34839	-1430.53784	-1172.95142	1133.9989	-1419.25293	-1020.19977	1381.25806	-1435.63	-987.71448	1204.13879	-1442.01013	-1202.25049	1294.50513	-1344.43298	-1085.68384	1413.59778	-1594.66138	-1117.64966	1212.17371	-1658.9364	-1138.65247	1101.21167	-1665.01208	-1132.89526	950.41797	-1686.13977	-1078.37061	830.71893	-1648.76465	-1143.01086	831.54626	-1678.91101	-1109.1145	746.70264	-1682.08679	-1054.32397	1415.58154	-1272.90735	-1075.88721	1217.53198	-1178.65112	-1052.44531	1097.90479	-1164.83081	-998.76685	990.84735	-1156.53772	-898.14215	886.25208	-1207.06519	-942.01331	866.37671	-1160.43445	-879.21692	811.55182	-1167.80945	-1001.11548	972.29987	-1533.41187	-992.86969	975.96039	-1313.89587	-1159.776	996.76654	-1502.17529	-1146.44153	1001.80035	-1334.44995	-1003.11163	666.21594	-1606.72717	-947.70782	512.13116	-1593.39514	-1087.7533	309.24335	-1580.85486	-1176.59351	162.50754	-1540.49182	-1212.28992	165.94221	-1488.78931	-1072.77356	63.98249	-1557.63586	-1051.69238	638.03937	-1274.30066	-1052.35046	513.02887	-1303.19031	-1131.09534	255.2139	-1319.30493	-1166.17493	74.85764	-1376.04236	-1207.93286	53.55753	-1421.86743	-1014.47198	36.68925	-1381.8479	-1084.30432	1712.12329	-1428.80945	NaN	NaN	NaN	NaN	NaN	NaN	NaN	NaN	NaN	NaN	NaN	NaN	NaN	NaN	NaN	NaN	NaN	NaN	NaN	NaN	NaN	NaN	NaN	NaN	NaN	NaN	NaN	NaN	NaN	NaN
4	0.03	-977.59332	1668.995	-1491.06775	-975.86639	1655.95386	-1359.77856	-1113.49377	1621.24658	-1489.55127	-1110.04041	1614.02051	-1361.19897	-1119.35339	1460.72583	-1430.81018	-1163.65991	1133.29236	-1419.25513	-1011.02997	1380.63794	-1435.73096	-978.35248	1203.55249	-1441.77283	-1193.00952	1293.85364	-1344.29077	-1076.4364	1412.77136	-1594.87915	-1110.32642	1211.60352	-1658.72559	-1132.71033	1100.95728	-1664.4248	-1129.74219	949.90106	-1684.99646	-1078.74133	829.23865	-1646.55408	-1142.8822	831.61737	-1678.4303	-1111.54639	745.42004	-1679.54749	-1045.53516	1415.203	-1273.18262	-1065.22107	1217.30566	-1178.64795	-1039.85864	1098.16382	-1164.52808	-983.37573	992.75201	-1156.50488	-879.69897	891.49506	-1207.60168	-923.12323	870.01758	-1160.96069	-858.44452	817.21472	-1168.67981	-991.32477	971.96594	-1532.93298	-984.2204	975.00049	-1313.67029	-1150.16174	996.23334	-1502.66052	-1137.60925	1000.97211	-1334.86719	-989.66144	667.04126	-1606.66931	-933.04022	513.42279	-1592.18542	-1065.50525	304.13995	-1581.27112	-1147.58215	153.1693	-1542.15955	-1183.39392	154.17044	-1490.42725	-1038.28003	60.51672	-1559.3186	-1045.43713	637.19855	-1274.96655	-1047.87646	512.13434	-1303.43542	-1128.86584	255.0139	-1320.04993	-1165.70679	74.93806	-1376.51025	-1207.62939	53.57297	-1422.28394	-1014.48486	36.78415	-1381.854	-1074.42249	1711.62036	-1429.19153	NaN	NaN	NaN	NaN	NaN	NaN	NaN	NaN	NaN	NaN	NaN	NaN	NaN	NaN	NaN	NaN	NaN	NaN	NaN	NaN	NaN	NaN	NaN	NaN	NaN	NaN	NaN	NaN	NaN	NaN
5	0.04	-967.81335	1667.92969	-1491.41553	-966.14447	1655.05908	-1360.16333	-1103.83984	1620.60864	-1489.97827	-1100.42261	1613.48267	-1361.62793	-1110.13416	1459.99719	-1431.229	-1154.33899	1132.44226	-1419.27063	-1001.79181	1379.80701	-1435.91431	-968.99609	1202.76489	-1441.55859	-1183.79529	1293.07581	-1344.28296	-1067.09656	1411.72009	-1595.12744	-1103.05664	1210.89075	-1658.54553	-1127.04468	1100.6001	-1663.80713	-1127.36218	950.16479	-1684.96826	-1078.89795	827.77826	-1644.40894	-1142.23413	831.63953	-1678.03003	-1113.30298	744.31	-1677.23962	-1036.39478	1414.64221	-1273.3418	-1054.53418	1216.83533	-1178.77649	-1027.36609	1098.30713	-1164.26025	-968.10223	994.5235	-1156.55115	-861.76355	896.48572	-1208.12109	-904.09155	873.62531	-1161.85889	-838.22906	822.78607	-1169.44238	-981.56165	971.57062	-1532.62744	-977.18903	973.79181	-1313.8064	-1140.59778	995.51831	-1503.1344	-1128.7074	999.96637	-1335.28345	-976.50256	667.73047	-1606.69287	-919.00824	514.38159	-1591.05786	-1043.1532	298.75146	-1581.67419	-1117.73682	143.53299	-1543.51733	-1153.67224	142.31479	-1491.92322	-1003.59076	57.20485	-1561.08069	-1039.18042	636.16669	-1275.70874	-1043.05078	511.06805	-1303.90063	-1126.50476	254.64862	-1320.74487	-1165.37646	74.9267	-1376.92871	-1207.55261	53.67604	-1422.64648	-1014.39539	36.65355	-1381.79614	-1064.5885	1710.91626	-1429.69958	NaN	NaN	NaN	NaN	NaN	NaN	NaN	NaN	NaN	NaN	NaN	NaN	NaN	NaN	NaN	NaN	NaN	NaN	NaN	NaN	NaN	NaN	NaN	NaN	NaN	NaN	NaN	NaN	NaN	NaN
